<svg width="106" height="48" viewBox="0 0 106 48" fill="none" xmlns="http://www.w3.org/2000/svg">
<rect x="1" y="1" width="104" height="46" stroke="black"/>
<path d="M8.05682 39V30.2727H13.2898V31.2102H9.11364V34.1591H12.8977V35.0966H9.11364V39H8.05682ZM14.3679 39H13.2599L16.4645 30.2727H17.5554L20.7599 39H19.652L17.044 31.6534H16.9759L14.3679 39ZM14.777 35.5909H19.2429V36.5284H14.777V35.5909ZM21.657 30.2727L24.2479 37.6193H24.3501L26.9411 30.2727H28.049L24.8445 39H23.7536L20.549 30.2727H21.657ZM36.3619 34.6364C36.3619 35.5568 36.1957 36.3523 35.8633 37.0227C35.5309 37.6932 35.0749 38.2102 34.4954 38.5739C33.9158 38.9375 33.2539 39.1193 32.5096 39.1193C31.7653 39.1193 31.1033 38.9375 30.5238 38.5739C29.9442 38.2102 29.4883 37.6932 29.1559 37.0227C28.8235 36.3523 28.6573 35.5568 28.6573 34.6364C28.6573 33.7159 28.8235 32.9205 29.1559 32.25C29.4883 31.5795 29.9442 31.0625 30.5238 30.6989C31.1033 30.3352 31.7653 30.1534 32.5096 30.1534C33.2539 30.1534 33.9158 30.3352 34.4954 30.6989C35.0749 31.0625 35.5309 31.5795 35.8633 32.25C36.1957 32.9205 36.3619 33.7159 36.3619 34.6364ZM35.3391 34.6364C35.3391 33.8807 35.2127 33.2429 34.9599 32.723C34.7099 32.2031 34.3704 31.8097 33.9414 31.5426C33.5153 31.2756 33.038 31.142 32.5096 31.142C31.9812 31.142 31.5025 31.2756 31.0735 31.5426C30.6474 31.8097 30.3079 32.2031 30.055 32.723C29.805 33.2429 29.68 33.8807 29.68 34.6364C29.68 35.392 29.805 36.0298 30.055 36.5497C30.3079 37.0696 30.6474 37.4631 31.0735 37.7301C31.5025 37.9972 31.9812 38.1307 32.5096 38.1307C33.038 38.1307 33.5153 37.9972 33.9414 37.7301C34.3704 37.4631 34.7099 37.0696 34.9599 36.5497C35.2127 36.0298 35.3391 35.392 35.3391 34.6364ZM38.1388 39V30.2727H41.0877C41.7695 30.2727 42.3292 30.3892 42.7667 30.6222C43.2042 30.8523 43.5281 31.169 43.7383 31.5724C43.9485 31.9759 44.0536 32.4347 44.0536 32.9489C44.0536 33.4631 43.9485 33.919 43.7383 34.3168C43.5281 34.7145 43.2056 35.027 42.771 35.2543C42.3363 35.4787 41.7809 35.5909 41.1048 35.5909H38.7184V34.6364H41.0707C41.5366 34.6364 41.9116 34.5682 42.1957 34.4318C42.4826 34.2955 42.69 34.1023 42.8178 33.8523C42.9485 33.5994 43.0138 33.2983 43.0138 32.9489C43.0138 32.5994 42.9485 32.294 42.8178 32.0327C42.6871 31.7713 42.4783 31.5696 42.1914 31.4276C41.9045 31.2827 41.5252 31.2102 41.0536 31.2102H39.1957V39H38.1388ZM42.2468 35.0795L44.3945 39H43.1673L41.0536 35.0795H42.2468ZM46.8714 30.2727V39H45.8146V30.2727H46.8714ZM48.5131 31.2102V30.2727H55.0586V31.2102H52.3143V39H51.2575V31.2102H48.5131ZM56.6896 39V30.2727H61.9567V31.2102H57.7464V34.1591H61.6839V35.0966H57.7464V38.0625H62.0249V39H56.6896ZM68.6342 32.4545C68.5831 32.0227 68.3757 31.6875 68.0121 31.4489C67.6484 31.2102 67.2024 31.0909 66.674 31.0909C66.2876 31.0909 65.9496 31.1534 65.6598 31.2784C65.3729 31.4034 65.1484 31.5753 64.9865 31.794C64.8274 32.0128 64.7479 32.2614 64.7479 32.5398C64.7479 32.7727 64.8033 32.973 64.9141 33.1406C65.0277 33.3054 65.1726 33.4432 65.3487 33.554C65.5249 33.6619 65.7095 33.7514 65.9027 33.8224C66.0959 33.8906 66.2734 33.946 66.4354 33.9886L67.3217 34.2273C67.549 34.2869 67.8018 34.3693 68.0803 34.4744C68.3615 34.5795 68.63 34.723 68.8857 34.9048C69.1442 35.0838 69.3572 35.3139 69.5249 35.5952C69.6925 35.8764 69.7763 36.2216 69.7763 36.6307C69.7763 37.1023 69.6527 37.5284 69.4055 37.9091C69.1612 38.2898 68.8033 38.5923 68.3317 38.8168C67.8629 39.0412 67.2933 39.1534 66.6229 39.1534C65.9979 39.1534 65.4567 39.0526 64.9993 38.8509C64.5447 38.6491 64.1868 38.3679 63.9254 38.0071C63.6669 37.6463 63.5206 37.2273 63.4865 36.75H64.5774C64.6058 37.0795 64.7166 37.3523 64.9098 37.5682C65.1058 37.7812 65.353 37.9403 65.6513 38.0455C65.9524 38.1477 66.2763 38.1989 66.6229 38.1989C67.0263 38.1989 67.3885 38.1335 67.7095 38.0028C68.0305 37.8693 68.2848 37.6847 68.4723 37.4489C68.6598 37.2102 68.7536 36.9318 68.7536 36.6136C68.7536 36.3239 68.6726 36.0881 68.5107 35.9062C68.3487 35.7244 68.1357 35.5767 67.8714 35.4631C67.6072 35.3494 67.3217 35.25 67.0149 35.1648L65.9411 34.858C65.2592 34.6619 64.7195 34.3821 64.3217 34.0185C63.924 33.6548 63.7251 33.179 63.7251 32.5909C63.7251 32.1023 63.8572 31.6761 64.1214 31.3125C64.3885 30.946 64.7464 30.6619 65.1953 30.4602C65.647 30.2557 66.1513 30.1534 66.7081 30.1534C67.2706 30.1534 67.7706 30.2543 68.2081 30.456C68.6456 30.6548 68.9922 30.9276 69.2479 31.2741C69.5064 31.6207 69.6428 32.0142 69.657 32.4545H68.6342Z" fill="black"/>
</svg>
