<svg width="35" height="46" viewBox="0 0 35 46" fill="none" xmlns="http://www.w3.org/2000/svg">
<path d="M34.9429 46C34.9642 45.8373 34.9993 45.6912 34.9993 45.5452C35.0008 30.7435 34.9993 15.9418 34.9993 1.1401C34.9993 0.840389 34.9886 0.539174 34.978 0.239466C34.9719 0.0632551 34.8818 0.00150557 34.6956 0.00301164C33.3665 0.00752986 32.0388 0 30.7097 0C20.7417 0 10.7737 -5.05571e-07 0.805744 0.00301164C0.614991 0.00301164 0.424242 0.00903637 0.236542 0.0346396C0.178553 0.04217 0.094613 0.118979 0.0854568 0.17621C0.0442543 0.403627 0.00611115 0.635563 0.00611115 0.864486C0.00153308 6.26677 0 11.6675 0 17.0698C0 26.3307 -1.43191e-07 35.59 0.00152588 44.8509C0.00152588 45.1325 0.0259497 45.4141 0.0442619 45.6958C0.047314 45.756 0.0701958 45.8148 0.0946121 45.9202C0.325041 45.8072 0.535633 45.7153 0.735542 45.6054C1.18267 45.3614 1.62979 45.1159 2.06929 44.8554C2.67359 44.4969 3.26721 44.1204 3.87304 43.7635C4.22556 43.5556 4.59485 43.3764 4.95042 43.1716C5.55472 42.8237 6.1514 42.4622 6.75876 42.1173C7.46073 41.7197 8.17185 41.3402 8.87382 40.9426C9.28432 40.7092 9.67956 40.4501 10.087 40.2122C10.6959 39.8567 11.3124 39.5133 11.9243 39.1609C12.3944 38.8898 12.8598 38.6127 13.3298 38.3431C13.8441 38.0464 14.3629 37.7588 14.8772 37.4606C15.3289 37.1985 15.773 36.9259 16.2231 36.6654C16.5558 36.4726 16.89 36.2828 17.2334 36.1081C17.3921 36.0268 17.5721 35.9952 17.7446 36.093C18.2054 36.3551 18.6678 36.6141 19.1256 36.8822C19.7406 37.2422 20.3449 37.6202 20.9645 37.9726C21.7 38.3898 22.4524 38.7799 23.1894 39.1956C23.5572 39.4034 23.9082 39.6398 24.2668 39.8643C24.3156 39.8944 24.3614 39.9275 24.4103 39.9546C25.0008 40.292 25.5914 40.6323 26.185 40.9652C26.8382 41.3327 27.5004 41.6851 28.1505 42.0586C28.6877 42.3673 29.2081 42.7032 29.7437 43.015C30.3495 43.3659 30.966 43.6987 31.5734 44.0481C32.1106 44.3569 32.6386 44.6777 33.1727 44.9909C33.4336 45.1445 33.6961 45.2952 33.9601 45.4443C34.2729 45.622 34.5858 45.7967 34.9459 45.9985L34.9429 46Z" fill="black"/>
</svg>
