<svg width="35" height="46" viewBox="0 0 35 46" fill="none" xmlns="http://www.w3.org/2000/svg">
<g clip-path="url(#clip0_30_32)">
<path d="M34.7103 45.1451C34.7103 45.2769 34.6839 45.4087 34.6651 45.6535H34.6613C34.206 45.4351 33.7996 45.2731 33.4271 45.0547C28.3432 42.0945 23.2631 39.138 18.1943 36.1552C17.7277 35.8803 17.3664 35.8539 16.881 36.1402C11.6316 39.2209 6.37459 42.279 1.11387 45.3409C0.918191 45.4501 0.677357 45.4953 0.459101 45.5707C0.421471 45.3485 0.353736 45.1263 0.353736 44.9041C0.334921 30.2649 0.319869 15.6296 0.289764 0.990508C0.289764 0.41805 0.462864 0.278702 1.01603 0.278702C12.0154 0.293766 23.0147 0.293766 34.0141 0.278702C34.5635 0.278702 34.7253 0.399219 34.7253 0.971677C34.7103 15.6936 34.7178 30.4194 34.7178 45.1376L34.7103 45.1451Z" stroke="black" stroke-width="1.5" stroke-miterlimit="10"/>
</g>
<defs>
<clipPath id="clip0_30_32">
<rect width="35" height="46" fill="white"/>
</clipPath>
</defs>
</svg>
