<svg width="92" height="92" viewBox="0 0 92 92" fill="none" xmlns="http://www.w3.org/2000/svg">
<g clip-path="url(#clip0_29_3)">
<path d="M91 1V91H1V1H91ZM92 0H0V92H92V0Z" fill="black"/>
<path d="M14.4448 56.0012L13.3048 53.4612H9.6867L9.6505 53.5593C9.3312 54.2965 8.988 55.1421 8.6805 55.9018H7.3324L10.2505 49.6223C10.7285 48.5917 11.0478 47.8696 11.3173 47.1592L11.6373 47.0723L14.58 53.3883C14.9246 54.1489 15.4021 55.1425 15.7942 55.9021L14.4448 56.0012ZM12.8512 52.4553L11.49 49.4025L10.1415 52.4554L12.8512 52.4553Z" fill="black"/>
<path d="M23.6454 55.9885L21.4377 52.5168H20.1014V54.1368C20.1014 54.6138 20.1122 55.5585 20.1498 55.9018H18.7886C18.8501 55.313 18.8741 53.7429 18.8741 52.9461V50.2351C18.8741 49.4505 18.8502 47.8692 18.7886 47.2804C19.23 47.2804 20.4803 47.232 21.0447 47.2198C23.2036 47.1827 24.3924 48.3725 24.3563 49.7327C24.3508 50.2849 24.1745 50.8218 23.8517 51.2697C23.5289 51.7177 23.0753 52.0548 22.5533 52.2348L23.8051 54.0748C24.1357 54.5406 24.8108 55.4848 25.0925 55.828L23.6454 55.9885ZM20.1014 51.5H21.339C21.5621 51.5203 21.7869 51.4939 21.9991 51.4223C22.2113 51.3507 22.4063 51.2355 22.5714 51.0842C22.7366 50.9329 22.8683 50.7488 22.9581 50.5436C23.0479 50.3384 23.0939 50.1168 23.0931 49.8928C23.0931 48.8382 22.4555 48.2875 21.168 48.2875C20.775 48.2875 20.4318 48.2992 20.112 48.3227C20.1012 48.5687 20.1012 48.8509 20.1012 49.034L20.1014 51.5Z" fill="black"/>
<path d="M34.2431 48.3226C33.2984 48.3109 32.4772 48.2991 31.3855 48.2991C31.3724 48.5569 31.3724 48.8747 31.3724 49.071V54.1372C31.3724 54.6142 31.3855 55.5589 31.4224 55.9022H30.0615C30.1225 55.3134 30.1465 53.7433 30.1465 52.9465V50.2857C30.1465 49.7828 30.1348 48.9857 30.1099 48.2991C29.0182 48.2991 28.1599 48.3108 27.2162 48.3226C27.2519 47.952 27.2682 47.5798 27.265 47.2075C28.3806 47.2437 29.4239 47.269 30.7602 47.269C32.0965 47.269 33.2121 47.2436 34.3418 47.2075C34.2824 47.5764 34.2493 47.949 34.2431 48.3226Z" fill="black"/>
<path d="M8.6563 69.7807C8.7187 69.1948 8.7422 67.634 8.7422 66.8417V64.1464C8.7422 63.3653 8.7187 61.7938 8.6563 61.2079C9.11095 61.2137 9.56556 61.1934 10.0179 61.1472C9.9813 61.5011 9.9691 62.4755 9.9691 62.9517V68.0248C9.9691 68.4875 9.9813 69.4399 10.0179 69.7807H8.6563Z" fill="black"/>
<path d="M21.67 62.9514L21.5855 68.0978C21.5855 68.5735 21.5728 69.5615 21.609 69.9027L21.2907 69.9881L15.6615 63.5611V68.0244C15.6615 68.5001 15.6732 69.4395 15.7103 69.7803H14.3614C14.4351 69.1953 14.4961 67.6341 14.5084 66.8413L14.5572 63.9037C14.5699 63.1226 14.5699 61.6711 14.5084 61.0861L14.8393 61L20.5178 67.5241V64.1462C20.5178 63.3656 20.4929 61.7936 20.4197 61.2081C20.8701 61.2135 21.3205 61.1935 21.7687 61.1481C21.7194 61.5015 21.6827 62.4762 21.67 62.9514Z" fill="black"/>
<path d="M27.6333 70C26.7788 69.9766 25.9456 69.7284 25.2176 69.2805L25.2908 67.9877C25.9743 68.5486 26.8229 68.8697 27.7065 68.9018C28.6265 68.9018 29.2765 68.4513 29.2765 67.5479C29.2765 65.8429 25.5607 65.7565 25.5607 63.5117C25.567 63.1667 25.643 62.8266 25.784 62.5116C25.9249 62.1967 26.1281 61.9135 26.3811 61.6789C26.6342 61.4444 26.932 61.2634 27.2568 61.1467C27.5815 61.03 27.9264 60.9801 28.2709 61C28.9914 60.9952 29.6952 61.2173 30.2824 61.635L29.8767 62.7079C29.4021 62.3377 28.8239 62.1245 28.2226 62.0979C27.3263 62.0979 26.7873 62.5746 26.7873 63.3426C26.7873 64.867 30.4905 64.9398 30.4905 67.3788C30.4933 67.7442 30.4194 68.1061 30.2736 68.4411C30.1278 68.7762 29.9133 69.0769 29.644 69.324C29.3748 69.571 29.0567 69.7588 28.7104 69.8752C28.364 69.9917 27.9971 70.0342 27.6333 70Z" fill="black"/>
<path d="M40.2286 62.2439C39.2844 62.2313 38.4632 62.2206 37.3715 62.2206C37.3584 62.476 37.3584 62.793 37.3584 62.9881V68.0248C37.3584 68.5001 37.3715 69.4394 37.4084 69.7807H36.0475C36.1085 69.1952 36.1325 67.634 36.1325 66.8417V64.196C36.1325 63.696 36.1208 62.9027 36.0954 62.2206C35.0042 62.2206 34.1454 62.2313 33.2022 62.2439C33.2377 61.8754 33.2539 61.5053 33.2506 61.1351C34.3667 61.1711 35.41 61.1951 36.7462 61.1951C38.0824 61.1951 39.1981 61.1708 40.3273 61.1351C40.2683 61.5019 40.2353 61.8724 40.2286 62.2439Z" fill="black"/>
<path d="M43.5542 69.7807C43.6171 69.1948 43.6406 67.634 43.6406 66.8417V64.1464C43.6406 63.3653 43.6171 61.7938 43.5542 61.2079C44.0089 61.2137 44.4635 61.1934 44.9158 61.1472C44.8792 61.5011 44.867 62.4755 44.867 62.9517V68.0248C44.867 68.4875 44.8792 69.4399 44.9158 69.7807H43.5542Z" fill="black"/>
<path d="M55.0968 62.2439C54.1521 62.2313 53.3309 62.2206 52.2392 62.2206C52.2261 62.476 52.2261 62.793 52.2261 62.9881V68.0248C52.2261 68.5001 52.2392 69.4394 52.2761 69.7807H50.9152C50.9762 69.1952 51.0002 67.634 51.0002 66.8417V64.196C51.0002 63.696 50.9885 62.9027 50.9636 62.2206C49.8719 62.2206 49.0136 62.2313 48.0699 62.2439C48.1056 61.8754 48.1219 61.5053 48.1187 61.1351C49.2343 61.1711 50.2776 61.1951 51.6139 61.1951C52.9502 61.1951 54.0658 61.1708 55.1955 61.1351C55.1361 61.5019 55.103 61.8724 55.0968 62.2439Z" fill="black"/>
<path d="M65.9152 61.2206L63.1685 67.4646C62.7145 68.5001 62.4201 69.2075 62.1754 69.9138L61.8561 70L59.11 63.7324C58.778 62.9639 58.325 61.976 57.9564 61.2313L59.3054 61.1347L61.9911 67.5375L63.6465 63.55C63.9414 62.83 64.2606 61.9888 64.5428 61.2207L65.9152 61.2206Z" fill="black"/>
<path d="M75.1641 62.2439C74.2194 62.2313 73.3987 62.2206 72.3065 62.2206C72.2938 62.476 72.2938 62.793 72.2938 62.9881V68.0248C72.2938 68.5001 72.3065 69.4394 72.3438 69.7807H70.983C71.044 69.1952 71.068 67.634 71.068 66.8417V64.196C71.068 63.696 71.0563 62.9027 71.0309 62.2206C69.9397 62.2206 69.0809 62.2313 68.1377 62.2439C68.1732 61.8754 68.1894 61.5053 68.1861 61.1351C69.3017 61.1711 70.3455 61.1951 71.6817 61.1951C73.0179 61.1951 74.1331 61.1708 75.2628 61.1351C75.2036 61.5019 75.1706 61.8724 75.1641 62.2439Z" fill="black"/>
<path d="M83.8255 69.8294C83.0888 69.7808 82.1822 69.7678 81.3107 69.7678C80.4392 69.7678 79.5199 69.7809 78.7969 69.8294C78.8579 69.2444 78.8828 67.671 78.8828 66.8913V64.0733C78.8828 63.2815 78.8579 61.7202 78.7969 61.1352C79.52 61.1711 80.3539 61.1952 81.2248 61.1952C82.0957 61.1952 82.9292 61.1714 83.6659 61.1352C83.6067 61.494 83.5735 61.8566 83.5668 62.2202C82.8437 62.2076 82.0958 62.1964 81.2248 62.1964C80.8567 62.1964 80.4886 62.1964 80.1331 62.2076C80.1092 62.4276 80.1092 62.7436 80.1092 62.9276V64.769H83.0892C83.0643 65.0729 83.0521 65.4035 83.0521 65.7695H80.1091V68.025C80.1091 68.2071 80.1091 68.5372 80.133 68.7557C80.4884 68.7557 80.8565 68.7683 81.2247 68.7683C82.2182 68.7683 83.077 68.7557 83.9104 68.7323C83.8613 69.0961 83.833 69.4624 83.8255 69.8294Z" fill="black"/>
<path d="M15.0339 83.18C14.2362 83.8163 13.2456 84.1622 12.2252 84.1608C11.659 84.1661 11.0975 84.0582 10.5735 83.8436C10.0496 83.6289 9.57377 83.3118 9.17403 82.9108C8.77429 82.5098 8.45867 82.033 8.24568 81.5084C8.03269 80.9838 7.92662 80.4219 7.9337 79.8557C7.90756 79.2441 8.00507 78.6336 8.22041 78.0605C8.43574 77.4875 8.76446 76.9638 9.18691 76.5208C9.60936 76.0778 10.1168 75.7246 10.679 75.4823C11.2411 75.24 11.8464 75.1136 12.4585 75.1107C13.366 75.1111 14.2532 75.3796 15.0085 75.8826L14.6653 77.0109C14.0144 76.4997 13.212 76.2194 12.3843 76.2141C11.9491 76.215 11.5186 76.3047 11.1192 76.4776C10.7198 76.6506 10.3599 76.9032 10.0614 77.22C9.76303 77.5369 9.53238 77.9113 9.38361 78.3203C9.23483 78.7293 9.17107 79.1644 9.1962 79.5989C9.1962 81.8423 10.57 83.0565 12.2979 83.0565C12.8275 83.0512 13.3505 82.9388 13.8355 82.726C14.3205 82.5132 14.7575 82.2045 15.12 81.8184L15.0339 83.18Z" fill="black"/>
<path d="M24.4175 83.94C24.4907 83.3507 24.5161 81.7811 24.5161 80.9834V79.9547H20.0152V82.1747C20.0152 82.64 20.0265 83.5978 20.0636 83.9406H18.7024C18.7634 83.3513 18.7888 81.7817 18.7888 80.984V78.274C18.7888 77.4885 18.7634 75.9081 18.7024 75.3188C19.157 75.3248 19.6115 75.3041 20.0636 75.2568C20.0265 75.6127 20.0152 76.5935 20.0152 77.0725V78.9492H24.5161V78.274C24.5161 77.4885 24.4907 75.9081 24.4175 75.3188C24.8803 75.3244 25.343 75.3037 25.8035 75.2568C25.7535 75.6127 25.7415 76.5935 25.7415 77.0725V82.1744C25.7415 82.6397 25.7537 83.5975 25.8035 83.9403L24.4175 83.94Z" fill="black"/>
<path d="M30.1961 83.94C30.259 83.3507 30.2825 81.7811 30.2825 80.9834V78.2734C30.2825 77.4879 30.259 75.9075 30.1961 75.3182C30.651 75.3242 31.1058 75.3035 31.5582 75.2562C31.5216 75.6121 31.5089 76.5929 31.5089 77.0719V82.1738C31.5089 82.6391 31.5216 83.5969 31.5582 83.9397L30.1961 83.94Z" fill="black"/>
<path d="M42.3391 83.18C41.5411 83.8162 40.5505 84.1621 39.5299 84.1608C38.9638 84.166 38.4023 84.0582 37.8784 83.8435C37.3545 83.6288 36.8787 83.3117 36.479 82.9107C36.0793 82.5097 35.7638 82.0329 35.5508 81.5083C35.3379 80.9837 35.2318 80.4218 35.2389 79.8557C35.2128 79.2441 35.3103 78.6336 35.5256 78.0605C35.7409 77.4875 36.0697 76.9638 36.4921 76.5208C36.9146 76.0778 37.422 75.7246 37.9842 75.4823C38.5463 75.24 39.1516 75.1136 39.7637 75.1107C40.6712 75.111 41.5584 75.3796 42.3137 75.8826L41.97 77.0109C41.3191 76.4997 40.5167 76.2194 39.689 76.2141C39.2538 76.2151 38.8234 76.3048 38.424 76.4778C38.0247 76.6508 37.6648 76.9034 37.3665 77.2202C37.0681 77.5371 36.8375 77.9114 36.6888 78.3204C36.54 78.7294 36.4763 79.1644 36.5014 79.5989C36.5014 81.8423 37.8752 83.0565 39.6031 83.0565C40.1326 83.0511 40.6555 82.9386 41.1404 82.7259C41.6252 82.5131 42.0621 82.2044 42.4245 81.8184L42.3391 83.18Z" fill="black"/>
<path d="M51.9809 84.0387L50.8409 81.4995H47.2227L47.1865 81.5981C46.8672 82.3343 46.524 83.1799 46.2165 83.9406H44.868L47.7866 77.6611C48.2646 76.6305 48.5839 75.9084 48.8534 75.197L49.1734 75.1101L52.1159 81.4257C52.4605 82.1873 52.938 83.1799 53.3301 83.9405L51.9809 84.0387ZM50.3873 80.4938L49.0257 77.44L47.6772 80.4938H50.3873Z" fill="black"/>
<path d="M61.9295 79.8921C62.4187 79.8855 62.661 79.8738 63.2 79.8456C63.139 80.3114 63.1568 81.512 63.1568 82.3097V83.2534C62.2606 83.8726 61.1905 84.1905 60.1016 84.161C58.9427 84.1766 57.8249 83.7323 56.993 82.9254C56.1611 82.1185 55.6829 81.0147 55.6632 79.8559C55.6439 79.2337 55.751 78.6141 55.978 78.0344C56.205 77.4548 56.5472 76.9273 56.9839 76.4836C57.4206 76.04 57.9427 75.6896 58.5187 75.4535C59.0947 75.2174 59.7126 75.1005 60.335 75.11C61.2965 75.1109 62.239 75.3782 63.0578 75.8824L62.7141 77.0102C61.9988 76.4969 61.1417 76.2185 60.2613 76.2134C59.8143 76.1957 59.3685 76.2716 58.9525 76.4361C58.5365 76.6006 58.1594 76.8502 57.8454 77.1689C57.5314 77.4876 57.2874 77.8683 57.1291 78.2867C56.9707 78.7051 56.9015 79.152 56.9258 79.5987C56.8841 80.0455 56.938 80.496 57.0837 80.9205C57.2294 81.3449 57.4637 81.7335 57.7711 82.0604C58.0784 82.3874 58.4517 82.6453 58.8663 82.817C59.2809 82.9887 59.7273 83.0702 60.1758 83.0563C60.7923 83.0801 61.4046 82.9451 61.9539 82.6642V81.1687C61.9539 80.9842 61.9539 80.6536 61.93 80.433L61.9295 79.8921Z" fill="black"/>
<path d="M75.0908 79.4145C75.1288 80.0209 75.0427 80.6286 74.8377 81.2006C74.6328 81.7726 74.3134 82.2967 73.8989 82.741C73.4845 83.1853 72.9838 83.5403 72.4274 83.7845C71.8711 84.0286 71.2708 84.1567 70.6632 84.1609C70.1026 84.1642 69.5471 84.0542 69.0301 83.8375C68.5132 83.6207 68.0453 83.3017 67.6547 82.8996C67.2641 82.4975 66.9588 82.0206 66.7571 81.4975C66.5554 80.9745 66.4615 80.416 66.4811 79.8558C66.443 79.2494 66.529 78.6416 66.734 78.0697C66.9389 77.4977 67.2583 76.9735 67.6728 76.5293C68.0873 76.085 68.588 75.73 69.1445 75.486C69.7009 75.2419 70.3012 75.114 70.9088 75.11C71.4693 75.1068 72.0246 75.2168 72.5415 75.4335C73.0584 75.6503 73.5262 75.9692 73.9168 76.3712C74.3074 76.7732 74.6127 77.2499 74.8145 77.7728C75.0162 78.2958 75.1101 78.8543 75.0908 79.4145ZM73.8279 79.6114C73.8279 77.4398 72.5024 76.1519 70.7732 76.1519C68.9589 76.1519 67.7447 77.7474 67.7447 79.6597C67.7447 81.8308 69.0683 83.1192 70.798 83.1192C72.6136 83.1192 73.8279 81.5242 73.8279 79.6114Z" fill="black"/>
</g>
<defs>
<clipPath id="clip0_29_3">
<rect width="92" height="92" fill="white"/>
</clipPath>
</defs>
</svg>
