<svg width="106" height="48" viewBox="0 0 106 48" fill="none" xmlns="http://www.w3.org/2000/svg">
<rect x="1" y="1" width="104" height="46" stroke="black"/>
<path d="M9.05682 38V29.2727H12.0057C12.6875 29.2727 13.2472 29.3892 13.6847 29.6222C14.1222 29.8523 14.446 30.169 14.6562 30.5724C14.8665 30.9759 14.9716 31.4347 14.9716 31.9489C14.9716 32.4631 14.8665 32.919 14.6562 33.3168C14.446 33.7145 14.1236 34.027 13.6889 34.2543C13.2543 34.4787 12.6989 34.5909 12.0227 34.5909H9.63636V33.6364H11.9886C12.4545 33.6364 12.8295 33.5682 13.1136 33.4318C13.4006 33.2955 13.608 33.1023 13.7358 32.8523C13.8665 32.5994 13.9318 32.2983 13.9318 31.9489C13.9318 31.5994 13.8665 31.294 13.7358 31.0327C13.6051 30.7713 13.3963 30.5696 13.1094 30.4276C12.8224 30.2827 12.4432 30.2102 11.9716 30.2102H10.1136V38H9.05682ZM13.1648 34.0795L15.3125 38H14.0852L11.9716 34.0795H13.1648ZM17.0906 38H15.9826L19.1871 29.2727H20.2781L23.4826 38H22.3746L19.7667 30.6534H19.6985L17.0906 38ZM17.4996 34.5909H21.9656V35.5284H17.4996V34.5909ZM31.7624 29.2727V38H30.7397L25.984 31.1477H25.8988V38H24.842V29.2727H25.8647L30.6374 36.142H30.7227V29.2727H31.7624ZM36.5703 38H33.8771V29.2727H36.6896C37.5362 29.2727 38.2607 29.4474 38.8629 29.7969C39.4652 30.1435 39.9268 30.642 40.2479 31.2926C40.5689 31.9403 40.7294 32.7159 40.7294 33.6193C40.7294 34.5284 40.5675 35.3111 40.2436 35.9673C39.9197 36.6207 39.4482 37.1236 38.8288 37.4759C38.2095 37.8253 37.4567 38 36.5703 38ZM34.9339 37.0625H36.5021C37.2237 37.0625 37.8217 36.9233 38.2962 36.6449C38.7706 36.3665 39.1243 35.9702 39.3572 35.456C39.5902 34.9418 39.7067 34.3295 39.7067 33.6193C39.7067 32.9148 39.5916 32.3082 39.3615 31.7997C39.1314 31.2884 38.7876 30.8963 38.3303 30.6236C37.8729 30.348 37.3033 30.2102 36.6214 30.2102H34.9339V37.0625ZM49.8658 33.6364C49.8658 34.5568 49.6996 35.3523 49.3672 36.0227C49.0348 36.6932 48.5788 37.2102 47.9993 37.5739C47.4197 37.9375 46.7578 38.1193 46.0135 38.1193C45.2692 38.1193 44.6072 37.9375 44.0277 37.5739C43.4482 37.2102 42.9922 36.6932 42.6598 36.0227C42.3274 35.3523 42.1612 34.5568 42.1612 33.6364C42.1612 32.7159 42.3274 31.9205 42.6598 31.25C42.9922 30.5795 43.4482 30.0625 44.0277 29.6989C44.6072 29.3352 45.2692 29.1534 46.0135 29.1534C46.7578 29.1534 47.4197 29.3352 47.9993 29.6989C48.5788 30.0625 49.0348 30.5795 49.3672 31.25C49.6996 31.9205 49.8658 32.7159 49.8658 33.6364ZM48.843 33.6364C48.843 32.8807 48.7166 32.2429 48.4638 31.723C48.2138 31.2031 47.8743 30.8097 47.4453 30.5426C47.0192 30.2756 46.5419 30.142 46.0135 30.142C45.4851 30.142 45.0064 30.2756 44.5774 30.5426C44.1513 30.8097 43.8118 31.2031 43.5589 31.723C43.3089 32.2429 43.1839 32.8807 43.1839 33.6364C43.1839 34.392 43.3089 35.0298 43.5589 35.5497C43.8118 36.0696 44.1513 36.4631 44.5774 36.7301C45.0064 36.9972 45.4851 37.1307 46.0135 37.1307C46.5419 37.1307 47.0192 36.9972 47.4453 36.7301C47.8743 36.4631 48.2138 36.0696 48.4638 35.5497C48.7166 35.0298 48.843 34.392 48.843 33.6364ZM51.6428 29.2727H52.9041L55.87 36.517H55.9723L58.9382 29.2727H60.1996V38H59.2109V31.3693H59.1257L56.3984 38H55.4439L52.7166 31.3693H52.6314V38H51.6428V29.2727Z" fill="black"/>
</svg>
